<svg id="Layer_1" data-name="Layer 1" xmlns="http://www.w3.org/2000/svg" viewBox="0 0 500 500"><defs><style>.cls-1{fill:#ff0056;}.cls-2{fill:#fff;}</style></defs><path class="cls-1" d="M250,450c110.46,0,200-89.54,200-200S360.45,50,250,50,50,139.54,50,250s89.54,200,200,200"/><path class="cls-2" d="M124.34,241.3,160.76,156H174l35,85.34H193.1l-7.7-19.48H148.14l-7.93,19.48Zm29.21-32.58h26.8l-13.22-33.53Z"/><path class="cls-2" d="M209,241.3,245.38,156H258.6l35,85.34H277.71L270,221.82H232.76l-7.93,19.48Zm29.21-32.58H265l-13.22-33.53Z"/><path class="cls-2" d="M370.5,224.71a33.86,33.86,0,0,1-13.94,13.1,43,43,0,0,1-20,4.57q-13.1,0-22.47-5a34.26,34.26,0,0,1-14.36-14.49q-5-9.42-5-22.53,0-13.59,5.53-23.8a40.46,40.46,0,0,1,15.38-16,44.42,44.42,0,0,1,22.84-5.77q11.06,0,18.93,4.21a34.83,34.83,0,0,1,13.16,12.74l-12,8.66a20.58,20.58,0,0,0-8.53-8.78,24.85,24.85,0,0,0-11.66-2.76,26.4,26.4,0,0,0-14.43,4,27.26,27.26,0,0,0-9.79,11,35.65,35.65,0,0,0-3.55,16.29q0,13.34,6.91,20.79t19.29,7.45a26.08,26.08,0,0,0,12.62-3.12,23.7,23.7,0,0,0,9.38-9.5Z"/><path class="cls-2" d="M134.68,361.49V276.15H150.3v35.34h40.39V276.15h15.75v85.34H190.69v-36.3H150.3v36.3Z"/><path class="cls-2" d="M277.71,289.61H238.05v22h37.74v13.46H238.05V348h41.1l-1.08,13.47H222.78V276.15h54.93Z"/><path class="cls-2" d="M345.74,276.15h15v85.34h-13.7L304.63,302v59.5h-15V276.15h13.7l42.43,59.49Z"/></svg>