<svg id="Layer_1" data-name="Layer 1" xmlns="http://www.w3.org/2000/svg" viewBox="0 0 500 500"><defs><style>.cls-1{fill:#ff0056;}.cls-2{fill:#fff;}</style></defs><path class="cls-1" d="M250,450c110.46,0,200-89.55,200-200S360.46,50,250,50,50,139.54,50,250s89.54,200,200,200"/><path class="cls-2" d="M112.78,248.37l3.34-87.79h14l32.15,67.64,32-67.64h14L211,248.37H195.5l-1.73-54.65-26.09,54.65H155.56l-25.72-54.28-2.22,54.28Z"/><path class="cls-2" d="M227.65,248.37V160.58h26.09q25.59,0,38.7,11t13.11,32.52q0,13.36-5.81,23.31a39.75,39.75,0,0,1-16.45,15.46q-10.64,5.5-25,5.5Zm16.07-14.22h14q15.46,0,23.5-7.48t8-21.95q0-15.08-8.22-22.5t-25.16-7.42H243.72Z"/><path class="cls-2" d="M375.53,174.43h-40.8v22.63h38.82V210.9H334.73v23.62H377l-1.11,13.85H319V160.58h56.51Z"/><path class="cls-2" d="M143,372V284.23H159v73.69H198.1L197,372Z"/><path class="cls-2" d="M205.4,372V284.23h16.07v73.69h39.07L259.43,372Z"/><path class="cls-2" d="M325.58,284.23H341V372h-14.1l-43.65-61.21V372H267.84V284.23h14.09l43.65,61.2Z"/></svg>