<svg id="Layer_1" data-name="Layer 1" xmlns="http://www.w3.org/2000/svg" viewBox="0 0 500 500"><defs><style>.cls-1{fill:#ff0056;}.cls-2{fill:#fff;}</style></defs><path class="cls-1" d="M250,450c110.46,0,200-89.54,200-200S360.46,50,250,50,50,139.54,50,250s89.54,200,200,200"/><path class="cls-2" d="M189.47,273.35a33.74,33.74,0,0,1-13.94,13.1,43,43,0,0,1-20,4.57q-13.09,0-22.47-5a34.22,34.22,0,0,1-14.37-14.49q-5-9.44-5-22.54,0-13.58,5.53-23.8a40.55,40.55,0,0,1,15.39-16,44.42,44.42,0,0,1,22.84-5.77q11.06,0,18.93,4.21a34.75,34.75,0,0,1,13.16,12.74l-12,8.66a20.58,20.58,0,0,0-8.53-8.78,24.85,24.85,0,0,0-11.66-2.76,26.32,26.32,0,0,0-14.43,4,27.16,27.16,0,0,0-9.79,11,35.65,35.65,0,0,0-3.55,16.29q0,13.35,6.91,20.8T155.81,277a26.15,26.15,0,0,0,12.63-3.12,23.8,23.8,0,0,0,9.37-9.5Z"/><path class="cls-2" d="M252.26,299.55q-15.13,0-26.24-6a41.86,41.86,0,0,1-17.13-16.87q-6-10.89-6-25.92a56,56,0,0,1,3.6-20.46,45.3,45.3,0,0,1,10.26-15.92,46.2,46.2,0,0,1,15.92-10.32,55.34,55.34,0,0,1,20.46-3.64q14,0,24.12,4.81A35.59,35.59,0,0,1,292.82,219q5.44,8.94,5.45,21.31a46.24,46.24,0,0,1-3.07,17.35,29.51,29.51,0,0,1-8.36,12,18.31,18.31,0,0,1-12,4.39q-5.71,0-9.15-2.69a11.71,11.71,0,0,1-4.29-7.46,23.47,23.47,0,0,1-8,7.51,20.53,20.53,0,0,1-10.21,2.64q-8.25,0-13-5.13t-4.76-14a34.72,34.72,0,0,1,2.22-12.48,32.1,32.1,0,0,1,6.19-10.21,29,29,0,0,1,9.25-6.88A27.62,27.62,0,0,1,262.41,224a17.12,17.12,0,0,1,6.14,3.28l1.58-3.49,7.93,1.06-5.5,30.57q-1.47,8.46,4.24,8.46a6.81,6.81,0,0,0,5.44-3.07,23.52,23.52,0,0,0,3.81-8.41,47,47,0,0,0,1.43-12.11,29,29,0,0,0-4.18-15.76,27.26,27.26,0,0,0-11.85-10.26,42.73,42.73,0,0,0-18.24-3.59,39.78,39.78,0,0,0-20.31,5,34.53,34.53,0,0,0-13.43,14q-4.77,9-4.76,21,0,18.2,9.94,28.3t27.92,10.1a45.64,45.64,0,0,0,13.44-2,36.21,36.21,0,0,0,11.21-5.5l6.13,9.1a42.22,42.22,0,0,1-13.64,6.5A63.06,63.06,0,0,1,252.26,299.55Zm-5.93-36.06a13.39,13.39,0,0,0,10.1-4.76q4.4-4.77,6-13.54l1.8-8.89q-3.29-3-8.89-3a14.79,14.79,0,0,0-8.78,2.8,19.9,19.9,0,0,0-6.24,7.51A23,23,0,0,0,238,254Q238,263.48,246.33,263.49Z"/><path class="cls-2" d="M314.49,289.94V204.59h15.63v35.34h40.39V204.59h15.75v85.35H370.51V253.63H330.12v36.31Z"/></svg>