<svg id="Layer_1" data-name="Layer 1" xmlns="http://www.w3.org/2000/svg" viewBox="0 0 500 500"><defs><style>.cls-1{fill:#ff0056;}.cls-2{fill:#fff;}</style></defs><path class="cls-1" d="M250,450c110.46,0,200-89.54,200-200S360.46,50,250,50,50,139.54,50,250s89.54,200,200,200"/><path class="cls-2" d="M154.94,242.87l3.24-85.35h13.59L203,223.27l31.14-65.75h13.58l2.65,85.35h-15l-1.68-53.14-25.37,53.14H196.53l-25-52.77-2.17,52.77Z"/><path class="cls-2" d="M266.61,242.87V157.52h15.63v85.35Z"/><path class="cls-2" d="M298.71,242.87V157.52h15.63v71.64h38l-1.08,13.71Z"/><path class="cls-2" d="M164.37,362.73l36.43-85.35H214l35,85.35H233.14l-7.7-19.48H188.18l-7.94,19.48Zm29.22-32.58h26.8l-13.22-33.54Z"/><path class="cls-2" d="M312,277.38h15v85.35h-13.7l-42.44-59.51v59.51h-15V277.38h13.71L312,336.88Z"/></svg>