<svg id="Layer_1" data-name="Layer 1" xmlns="http://www.w3.org/2000/svg" viewBox="0 0 500 500"><defs><style>.cls-1{fill:#ff0056;}.cls-2{fill:#fff;}</style></defs><path class="cls-1" d="M250,450c110.46,0,200-89.54,200-200S360.46,50,250,50,50,139.54,50,250s89.54,200,200,200"/><path class="cls-2" d="M124.21,241.94h30.72v40.31H143.71l-1.2-8.28a20.78,20.78,0,0,1-9.69,7.13,37.85,37.85,0,0,1-13,2.13,38.87,38.87,0,0,1-19.29-4.58,31.21,31.21,0,0,1-12.63-13.13Q83.47,257,83.47,245.1a44.19,44.19,0,0,1,5.07-21.57A36.36,36.36,0,0,1,102.91,209q9.33-5.23,21.85-5.23,10.23,0,17.54,3.81a31.54,31.54,0,0,1,12.09,11.44L143.49,227a18.56,18.56,0,0,0-8-7.73,24.26,24.26,0,0,0-11-2.51,26.91,26.91,0,0,0-14,3.54,23.81,23.81,0,0,0-9.15,9.86,32.1,32.1,0,0,0-3.21,14.71q0,12.21,6.15,18.9t16.94,6.7a25.72,25.72,0,0,0,9.7-1.85,17.86,17.86,0,0,0,7.46-5.5,14.06,14.06,0,0,0,2.89-9v-.65H124.21Z"/><path class="cls-2" d="M167.46,282.25V204.9h14.16v64.93h34.43l-1,12.42Z"/><path class="cls-2" d="M256.9,283.23q-11.76.11-20.15-4.42a30.46,30.46,0,0,1-12.86-13.12q-4.47-8.61-4.47-20.7a46.09,46.09,0,0,1,4.8-21.41A35.38,35.38,0,0,1,237.78,209q8.78-5.23,20.75-5.23a36,36,0,0,1,18.74,4.79A32.93,32.93,0,0,1,289.8,222q4.47,8.55,4.47,20.1,0,12.52-4.85,21.73a36,36,0,0,1-13.29,14.33A36.38,36.38,0,0,1,256.9,283.23Zm-.44-12.75a22,22,0,0,0,12.15-3.38,22.73,22.73,0,0,0,8.28-9.69,35.59,35.59,0,0,0,3-15.36q0-11.66-5.89-18.63t-15.79-7A22.57,22.57,0,0,0,245.62,220,24.88,24.88,0,0,0,237,230a32.81,32.81,0,0,0-3.16,14.81q0,12.31,6,19T256.46,270.48Z"/><path class="cls-2" d="M306.14,282.25V204.9h25.71q14.7,0,22.6,5.39t7.9,15.74a18.93,18.93,0,0,1-2.72,10,18.53,18.53,0,0,1-7.74,7,18.12,18.12,0,0,1,8.5,6.59,17.86,17.86,0,0,1,3.16,10.51q0,10.14-7.52,16.13t-20.59,6Zm25.93-65.8H320v21h11.88q8.28,0,12.31-2.56c2.68-1.7,4-4.45,4-8.22q0-5.24-3.87-7.74T332.07,216.45ZM320,270.7h15.15q6.64,0,10.51-2.62t3.87-8.27q0-10.58-14.71-10.57H320Z"/><path class="cls-2" d="M374.12,282.25V204.9h14.16v64.93H422.7l-1,12.42Z"/></svg>