<svg id="Layer_1" data-name="Layer 1" xmlns="http://www.w3.org/2000/svg" viewBox="0 0 500 500"><defs><style>.cls-1{fill:#ff0056;}.cls-2{fill:#fff;}</style></defs><path class="cls-1" d="M250,450c110.46,0,200-89.54,200-200S360.46,50,250,50,50,139.54,50,250s89.54,200,200,200"/><path class="cls-2" d="M195.85,241.23H180.58V155.88h30q16.59,0,25.37,6.73t8.77,19.47q0,12.87-9.49,20.14t-27.65,7.27H195.85ZM210,168.62H195.85v28h12.62q10.82,0,15.75-3.49t4.93-10.82q0-7.32-4.63-10.51T210,168.62Z"/><path class="cls-2" d="M244.53,241.23,281,155.88h13.22l35,85.35H313.29l-7.69-19.48H268.33l-7.93,19.48Zm29.21-32.58h26.81l-13.22-33.54Z"/><path class="cls-2" d="M239,346.18l3.61,12.14a18.34,18.34,0,0,1-5.89,2.83,26,26,0,0,1-7.33,1q-13.47,0-21.16-11.9l-12.38-19a12.64,12.64,0,0,0-4-4.2,8.62,8.62,0,0,0-4.45-1.21h-.6v35.23H171.57V275.74h26.56q16.23,0,24.59,6.73T231.07,301a22,22,0,0,1-11.66,20.32,33.41,33.41,0,0,1-12.26,3.84,18.89,18.89,0,0,1,6.61,6.49l6.73,10a18.23,18.23,0,0,0,5,5.29,11.2,11.2,0,0,0,6,1.44A13.69,13.69,0,0,0,239,346.18Zm-41.95-57.7H186.83V313.6h9.5q9.85,0,14.54-3t4.69-9.62Q215.56,288.48,197.05,288.48Z"/><path class="cls-2" d="M245.74,361.09V275.74h15.62v85.35Z"/><path class="cls-2" d="M304.28,362.17q-15,0-23.44-6.73t-9.62-19.72l14.66-2.16Q288.05,349,305,348.94q7.33,0,11.42-2.94a9.58,9.58,0,0,0,4.09-8.23,8,8,0,0,0-4.09-7.28q-4.1-2.46-13.1-4.63A76.61,76.61,0,0,1,288.89,321a21.89,21.89,0,0,1-9.2-7.64q-3.18-4.8-3.18-12.74a23.8,23.8,0,0,1,3.9-13.46,26.86,26.86,0,0,1,10.76-9.26A35.63,35.63,0,0,1,307,274.53q11.91,0,19.48,6.26T335.41,298l-13.7,2.28q-2.52-12.5-15.39-12.5A15.4,15.4,0,0,0,296.16,291a10.58,10.58,0,0,0-3.9,8.54,9.45,9.45,0,0,0,3.84,8.11q3.86,2.84,13.11,5a85.27,85.27,0,0,1,14.3,4.51,21.83,21.83,0,0,1,9.32,7.15q3.3,4.57,3.3,12.5a22.32,22.32,0,0,1-4,13.17,27,27,0,0,1-11.18,8.95A39.86,39.86,0,0,1,304.28,362.17Z"/></svg>