<svg id="Layer_1" data-name="Layer 1" xmlns="http://www.w3.org/2000/svg" viewBox="0 0 500 500"><defs><style>.cls-1{fill:#ff0056;}.cls-2{fill:#fff;}</style></defs><path class="cls-1" d="M250,450c110.46,0,200-89.54,200-200S360.46,50,250,50,50,139.54,50,250s89.54,200,200,200"/><path class="cls-2" d="M177.18,241.23V155.88h15.63v71.64h38l-1.08,13.71Z"/><path class="cls-2" d="M237.88,241.23V155.88h15.63v85.35Z"/><path class="cls-2" d="M296.55,242.31q-15,0-23.45-6.73t-9.61-19.72l14.66-2.16q2.18,15.39,19.12,15.39,7.32,0,11.42-3a9.57,9.57,0,0,0,4.08-8.23,8,8,0,0,0-4.08-7.28q-4.1-2.46-13.11-4.62a77.19,77.19,0,0,1-14.42-4.87,21.83,21.83,0,0,1-9.2-7.64q-3.18-4.8-3.18-12.74a23.8,23.8,0,0,1,3.9-13.46A26.79,26.79,0,0,1,283.44,158a35.63,35.63,0,0,1,15.87-3.36q11.9,0,19.47,6.25t8.9,17.19L314,180.4q-2.53-12.5-15.39-12.5a15.38,15.38,0,0,0-10.16,3.24,10.58,10.58,0,0,0-3.91,8.54,9.45,9.45,0,0,0,3.85,8.11q3.84,2.84,13.1,5a86.34,86.34,0,0,1,14.31,4.51,21.83,21.83,0,0,1,9.32,7.15q3.3,4.58,3.3,12.5a22.26,22.26,0,0,1-4,13.17,26.89,26.89,0,0,1-11.18,8.95A39.84,39.84,0,0,1,296.55,242.31Z"/><path class="cls-2" d="M131,361.45V276.1h28.37q16.23,0,24.94,5.95T193,299.42a20.89,20.89,0,0,1-3,11.06,20.44,20.44,0,0,1-8.53,7.69,20,20,0,0,1,9.37,7.27,19.73,19.73,0,0,1,3.49,11.6q0,11.19-8.3,17.79t-22.72,6.62Zm28.61-72.61H146.22V312h13.11q9.13,0,13.58-2.83t4.45-9.07q0-5.77-4.27-8.54T159.57,288.84ZM146.22,348.7h16.71q7.33,0,11.6-2.88t4.27-9.14q0-11.65-16.23-11.66H146.22Z"/><path class="cls-2" d="M243.83,362.53q-13,.12-22.24-4.87a33.69,33.69,0,0,1-14.18-14.49q-4.93-9.5-4.93-22.84a50.86,50.86,0,0,1,5.29-23.62,39.18,39.18,0,0,1,15-16q9.67-5.76,22.9-5.77a39.73,39.73,0,0,1,20.67,5.29,36.39,36.39,0,0,1,13.83,14.73q4.92,9.43,4.93,22.18,0,13.82-5.35,24a39.2,39.2,0,0,1-35.89,21.46Zm-.48-14.07a24.4,24.4,0,0,0,13.41-3.72,25.09,25.09,0,0,0,9.13-10.7q3.32-7,3.31-17,0-12.87-6.49-20.56t-17.43-7.69a24.79,24.79,0,0,0-13.89,4,27.3,27.3,0,0,0-9.55,10.93,36.07,36.07,0,0,0-3.49,16.35q0,13.59,6.67,21T243.35,348.46Z"/><path class="cls-2" d="M354.19,276.1h15v85.35h-13.7l-42.43-59.51v59.51h-15V276.1h13.7l42.44,59.5Z"/></svg>