<svg id="Layer_1" data-name="Layer 1" xmlns="http://www.w3.org/2000/svg" viewBox="0 0 500 500"><defs><style>.cls-1{fill:#ff0056;}.cls-2{fill:#fff;}</style></defs><path class="cls-1" d="M250,450c110.46,0,200-89.55,200-200S360.46,50,250,50,50,139.54,50,250s89.54,200,200,200"/><path class="cls-2" d="M110.77,248.37l3.34-87.79h14l32.15,67.64,32-67.64h14L209,248.37H193.49l-1.73-54.65-26.09,54.65H153.56l-25.72-54.28-2.23,54.28Z"/><path class="cls-2" d="M284,160.58H300l.13,46.74q.12,13.11-4.27,22.56a32.49,32.49,0,0,1-12.73,14.53q-8.35,5.07-20.1,5.07-18.8,0-28.25-9.46t-9.46-28.87V160.58h16.07v49.33q0,13.25,5.38,19.17t16,5.94q10.75,0,16.13-6.93t5.26-21.51Z"/><path class="cls-2" d="M374.39,160.58h15.46v87.79h-14.1L332.1,187.16v61.21H316.65V160.58h14.09l43.65,61.21Z"/><path class="cls-2" d="M158.13,372V284.22h16.08V372Z"/><path class="cls-2" d="M264.47,355a34.93,34.93,0,0,1-14.35,13.48,44.29,44.29,0,0,1-20.52,4.7q-13.48,0-23.12-5.2A35.29,35.29,0,0,1,191.7,353q-5.13-9.7-5.13-23.18,0-14,5.69-24.48a41.6,41.6,0,0,1,15.82-16.45,45.62,45.62,0,0,1,23.5-5.94q11.37,0,19.47,4.33a35.86,35.86,0,0,1,13.54,13.11l-12.36,8.9a21.15,21.15,0,0,0-8.78-9,25.48,25.48,0,0,0-12-2.85,27.12,27.12,0,0,0-14.84,4.08,28,28,0,0,0-10.07,11.32,36.72,36.72,0,0,0-3.65,16.75q0,13.72,7.11,21.39t19.84,7.67a26.78,26.78,0,0,0,13-3.22,24.38,24.38,0,0,0,9.64-9.77Z"/><path class="cls-2" d="M270.4,372V284.22h16.08v36.35H328V284.22h16.2V372H328V334.67H286.48V372Z"/></svg>