<svg id="Layer_1" data-name="Layer 1" xmlns="http://www.w3.org/2000/svg" viewBox="0 0 500 500"><defs><style>.cls-1{fill:#ff0056;}.cls-2{fill:#fff;}</style></defs><path class="cls-1" d="M250,450c110.46,0,200-89.54,200-200S360.46,50,250,50,50,139.54,50,250s89.54,200,200,200"/><path class="cls-2" d="M196,226.22A33.86,33.86,0,0,1,182,239.32a43,43,0,0,1-20,4.57q-13.1,0-22.48-5a34.31,34.31,0,0,1-14.36-14.49q-5-9.43-5-22.54,0-13.58,5.53-23.8a40.46,40.46,0,0,1,15.38-16A44.46,44.46,0,0,1,164,156.25q11.06,0,18.93,4.21a34.83,34.83,0,0,1,13.16,12.74l-12,8.66a20.54,20.54,0,0,0-8.54-8.78,24.79,24.79,0,0,0-11.66-2.76,26.36,26.36,0,0,0-14.42,4,27.28,27.28,0,0,0-9.8,11,35.78,35.78,0,0,0-3.54,16.29q0,13.35,6.91,20.8t19.29,7.45a26.08,26.08,0,0,0,12.62-3.12,23.76,23.76,0,0,0,9.38-9.5Z"/><path class="cls-2" d="M259.54,157.46h15.51l.12,45.43q.12,12.75-4.15,21.94A31.63,31.63,0,0,1,258.64,239q-8.12,4.93-19.53,4.93-18.29,0-27.47-9.2t-9.2-28.07V157.46h15.63v48q0,12.87,5.23,18.63t15.57,5.77q10.45,0,15.68-6.73t5.11-20.92Z"/><path class="cls-2" d="M358.72,227.9l3.6,12.14a18.45,18.45,0,0,1-5.89,2.83,26,26,0,0,1-7.33,1q-13.47,0-21.16-11.9l-12.38-19a12.55,12.55,0,0,0-4-4.2,8.52,8.52,0,0,0-4.44-1.21h-.6v35.23H291.28V157.46h26.56q16.23,0,24.59,6.73t8.35,18.51A22,22,0,0,1,339.12,203a33.35,33.35,0,0,1-12.26,3.84,18.8,18.8,0,0,1,6.61,6.49l6.73,10a18.36,18.36,0,0,0,5,5.29,11.23,11.23,0,0,0,5.95,1.44A13.75,13.75,0,0,0,358.72,227.9Zm-42-57.7H306.55v25.12H316q9.85,0,14.55-3t4.69-9.62Q335.28,170.21,316.76,170.2Z"/><path class="cls-2" d="M365.57,242.81V157.46H381.2v85.35Z"/><path class="cls-2" d="M209.84,277.31,207.91,291H181.47v71.64H165.84V291H138.43V277.31Z"/><path class="cls-2" d="M215.73,362.66V277.31h28.36q16.23,0,25,6t8.71,17.37a20.82,20.82,0,0,1-3,11.05,20.42,20.42,0,0,1-8.54,7.7,20,20,0,0,1,9.38,7.27,19.78,19.78,0,0,1,3.49,11.6q0,11.17-8.3,17.79t-22.72,6.61Zm28.6-72.6H231v23.2h13.1q9.14,0,13.59-2.83t4.45-9.07q0-5.78-4.27-8.54C255,291,250.51,290.06,244.33,290.06ZM231,349.92H247.7q7.34,0,11.6-2.88t4.27-9.14q0-11.65-16.23-11.66H231Z"/><path class="cls-2" d="M280.64,362.66l36.42-85.35h13.23l35,85.35H349.4l-7.69-19.47H304.44l-7.93,19.47Zm29.21-32.57h26.81l-13.23-33.54Z"/></svg>