<svg id="Layer_1" data-name="Layer 1" xmlns="http://www.w3.org/2000/svg" viewBox="0 0 500 500"><defs><style>.cls-1{fill:#ff0056;}.cls-2{fill:#fff;}</style></defs><path class="cls-1" d="M250,450c110.46,0,200-89.54,200-200S360.46,50,250,50,50,139.54,50,250s89.54,200,200,200"/><path class="cls-2" d="M138.37,242.31q-15,0-23.45-6.73t-9.61-19.72L120,213.7q2.18,15.39,19.12,15.39,7.32,0,11.42-3a9.57,9.57,0,0,0,4.08-8.23,8,8,0,0,0-4.08-7.28q-4.09-2.46-13.11-4.62A77.19,77.19,0,0,1,123,201.14a21.83,21.83,0,0,1-9.2-7.64q-3.18-4.8-3.18-12.74a23.8,23.8,0,0,1,3.9-13.46A26.79,26.79,0,0,1,125.26,158a35.63,35.63,0,0,1,15.87-3.36q11.9,0,19.47,6.25t8.9,17.19l-13.7,2.28q-2.53-12.5-15.39-12.5a15.38,15.38,0,0,0-10.16,3.24,10.58,10.58,0,0,0-3.91,8.54,9.43,9.43,0,0,0,3.85,8.11q3.84,2.84,13.1,5a86.34,86.34,0,0,1,14.31,4.51,21.83,21.83,0,0,1,9.32,7.15q3.3,4.58,3.3,12.5a22.26,22.26,0,0,1-4,13.17A26.89,26.89,0,0,1,155,239.06,39.81,39.81,0,0,1,138.37,242.31Z"/><path class="cls-2" d="M181.16,241.23V155.88h15.63v71.64h38l-1.08,13.71Z"/><path class="cls-2" d="M314.23,224.64a33.74,33.74,0,0,1-13.94,13.1,43,43,0,0,1-20,4.57q-13.09,0-22.48-5.05a34.26,34.26,0,0,1-14.36-14.49q-5-9.44-5-22.54,0-13.57,5.53-23.8a40.41,40.41,0,0,1,15.39-16,44.42,44.42,0,0,1,22.84-5.76q11.06,0,18.93,4.2a34.83,34.83,0,0,1,13.16,12.74l-12,8.66a20.58,20.58,0,0,0-8.53-8.78,24.85,24.85,0,0,0-11.66-2.76,26.32,26.32,0,0,0-14.43,4,27.22,27.22,0,0,0-9.8,11A35.71,35.71,0,0,0,254.37,200q0,13.35,6.91,20.8t19.29,7.45a26.15,26.15,0,0,0,12.63-3.12,23.74,23.74,0,0,0,9.37-9.5Z"/><path class="cls-2" d="M377.22,155.88h15v85.35h-13.7l-42.44-59.51v59.51h-15V155.88h13.71l42.43,59.5Z"/><path class="cls-2" d="M180.26,275.74h15.63l-31.14,85.35H143l-25.84-85.35h16.59l21,72.24Z"/><path class="cls-2" d="M200.33,361.09V275.74H216v71.64h38l-1.08,13.71Z"/><path class="cls-2" d="M260.92,361.09V275.74h15.63v71.64h38l-1.08,13.71Z"/><path class="cls-2" d="M385.82,275.74,356,322.86v38.23H340.26V323.22L309.6,275.74h17.68l21.51,33.53,20.68-33.53Z"/></svg>