<svg id="Layer_1" data-name="Layer 1" xmlns="http://www.w3.org/2000/svg" viewBox="0 0 500 500"><defs><style>.cls-1{fill:#ff0056;}.cls-2{fill:#fff;}</style></defs><path class="cls-1" d="M250,450c110.46,0,200-89.54,200-200S360.46,50,250,50,50,139.54,50,250s89.54,200,200,200"/><path class="cls-2" d="M136.29,242.84V157.49h25.36q24.89,0,37.63,10.7T212,199.81q0,13-5.65,22.66a38.61,38.61,0,0,1-16,15q-10.33,5.35-24.28,5.35ZM151.91,229H165.5q15,0,22.84-7.28t7.81-21.33q0-14.67-8-21.88t-24.46-7.21H151.91Z"/><path class="cls-2" d="M281.86,157.49h15.51l.12,45.44q.12,12.75-4.15,21.94A31.55,31.55,0,0,1,281,239q-8.11,4.94-19.53,4.93-18.28,0-27.47-9.19t-9.2-28.07V157.49h15.63v48q0,12.85,5.23,18.63t15.57,5.77q10.46,0,15.68-6.73T282,202.21Zm-32.33-7.57a8.18,8.18,0,0,1-6.5-13.83,8.34,8.34,0,0,1,6.5-2.52,7.84,7.84,0,0,1,6.19,2.52,8.22,8.22,0,0,1,0,11.24A7.73,7.73,0,0,1,249.53,149.92Zm23.56,0a8,8,0,0,1-6.44-2.59,8.22,8.22,0,0,1,0-11.24,8.15,8.15,0,0,1,6.44-2.52,8,8,0,0,1,6.25,2.52,8.07,8.07,0,0,1,0,11.24A7.91,7.91,0,0,1,273.09,149.92Z"/><path class="cls-2" d="M340.16,243.92q-15,0-23.44-6.73t-9.61-19.71l14.66-2.17q2.16,15.39,19.12,15.39,7.32,0,11.42-2.95a9.56,9.56,0,0,0,4.08-8.23,8,8,0,0,0-4.08-7.27q-4.1-2.46-13.11-4.63a76.47,76.47,0,0,1-14.42-4.87,21.81,21.81,0,0,1-9.2-7.63q-3.18-4.81-3.18-12.75a23.85,23.85,0,0,1,3.9-13.46,26.8,26.8,0,0,1,10.76-9.26,35.63,35.63,0,0,1,15.87-3.36q11.9,0,19.47,6.25t8.9,17.19L357.59,182q-2.52-12.49-15.38-12.5a15.33,15.33,0,0,0-10.16,3.25,10.54,10.54,0,0,0-3.91,8.53,9.45,9.45,0,0,0,3.85,8.12q3.84,2.82,13.1,5a85.45,85.45,0,0,1,14.31,4.5,21.82,21.82,0,0,1,9.31,7.16q3.32,4.56,3.31,12.5a22.2,22.2,0,0,1-4,13.16,26.91,26.91,0,0,1-11.18,9A40,40,0,0,1,340.16,243.92Z"/><path class="cls-2" d="M147.65,362.7V277.35H173q24.88,0,37.63,10.7t12.74,31.61q0,13-5.65,22.66a38.57,38.57,0,0,1-16,15q-10.34,5.36-24.28,5.35Zm15.63-13.82h13.58q15,0,22.84-7.28t7.81-21.33q0-14.67-8-21.88t-24.46-7.21H163.28Z"/><path class="cls-2" d="M303.8,347.79l3.61,12.15a18.43,18.43,0,0,1-5.89,2.82,26,26,0,0,1-7.34,1q-13.46,0-21.15-11.9l-12.38-19a12.79,12.79,0,0,0-4-4.21,8.66,8.66,0,0,0-4.45-1.2h-.6V362.7H236.36V277.35h26.57q16.23,0,24.58,6.73t8.36,18.52a22.06,22.06,0,0,1-11.66,20.31,33.47,33.47,0,0,1-12.27,3.85,18.74,18.74,0,0,1,6.62,6.49l6.73,10a18.36,18.36,0,0,0,5,5.29,11.18,11.18,0,0,0,6,1.44A13.64,13.64,0,0,0,303.8,347.79Zm-41.95-57.7H251.63v25.13h9.5q9.86,0,14.54-3t4.69-9.61Q280.36,290.09,261.85,290.09Z"/><path class="cls-2" d="M362.82,290.81h-37V314h35.1v13.46H325.8V362.7H310.53V277.35h52.29Z"/></svg>