<svg id="Layer_1" data-name="Layer 1" xmlns="http://www.w3.org/2000/svg" viewBox="0 0 500 500"><defs><style>.cls-1{fill:#ff0056;}.cls-2{fill:#fff;}</style></defs><path class="cls-1" d="M250,450c110.46,0,200-89.55,200-200S360.46,50,250,50,50,139.54,50,250s89.54,200,200,200"/><path class="cls-2" d="M106,248.37l3.34-87.79h14l32.15,67.64,32-67.64h14l2.72,87.79H188.7L187,193.72l-26.09,54.65H148.76L123,194.09l-2.23,54.28Z"/><path class="cls-2" d="M279.21,160.58h16l.12,46.74q.12,13.11-4.26,22.56a32.56,32.56,0,0,1-12.74,14.53q-8.36,5.07-20.09,5.07-18.8,0-28.26-9.46t-9.46-28.87V160.58h16.08v49.33q0,13.25,5.38,19.17t16,5.94q10.76,0,16.14-6.93t5.25-21.51ZM246,152.79a8.41,8.41,0,0,1-6.68-14.22A8.54,8.54,0,0,1,246,136a8,8,0,0,1,6.36,2.6,8.44,8.44,0,0,1,0,11.56A7.94,7.94,0,0,1,246,152.79Zm24.23,0a8.27,8.27,0,0,1-6.62-2.66,8.47,8.47,0,0,1,0-11.56,8.36,8.36,0,0,1,6.62-2.6,8.25,8.25,0,0,1,6.43,2.6,8.28,8.28,0,0,1,0,11.56A8.15,8.15,0,0,1,270.18,152.79Z"/><path class="cls-2" d="M369.47,160.58h15.46v87.79h-14.1l-43.65-61.21v61.21H311.73V160.58h14.09l43.65,61.21Z"/><path class="cls-2" d="M173.24,373.13q-15.47,0-24.11-6.93t-9.9-20.28l15.09-2.22q2.22,15.82,19.66,15.82,7.54,0,11.75-3a9.84,9.84,0,0,0,4.2-8.47,8.21,8.21,0,0,0-4.2-7.48q-4.22-2.54-13.48-4.76a79.27,79.27,0,0,1-14.84-5,22.46,22.46,0,0,1-9.46-7.86q-3.27-4.94-3.28-13.1a24.46,24.46,0,0,1,4-13.85,27.51,27.51,0,0,1,11.07-9.52A36.56,36.56,0,0,1,176.08,283q12.24,0,20,6.43t9.15,17.69l-14.09,2.35q-2.59-12.87-15.83-12.86-6.43,0-10.45,3.33a10.87,10.87,0,0,0-4,8.78,9.73,9.73,0,0,0,4,8.35q4,2.91,13.48,5.13A88.06,88.06,0,0,1,193,326.82a22.3,22.3,0,0,1,9.58,7.36Q206,338.88,206,347a22.87,22.87,0,0,1-4.14,13.53,27.66,27.66,0,0,1-11.5,9.22A41.14,41.14,0,0,1,173.24,373.13Z"/><path class="cls-2" d="M279.82,284.22l-2,14.1h-27.2V372H234.57V298.32H206.38v-14.1Z"/><path class="cls-2" d="M355.37,356.68l3.71,12.49a19,19,0,0,1-6.06,2.9,26.68,26.68,0,0,1-7.54,1.06q-13.86,0-21.77-12.25L311,341.35A13,13,0,0,0,306.9,337a8.92,8.92,0,0,0-4.58-1.24h-.61V372H286V284.22h27.33q16.69,0,25.29,6.92t8.59,19.05a22.68,22.68,0,0,1-12,20.89,34.13,34.13,0,0,1-12.61,4,19.29,19.29,0,0,1,6.8,6.68L336.33,352a18.74,18.74,0,0,0,5.13,5.44,11.51,11.51,0,0,0,6.12,1.48A14.14,14.14,0,0,0,355.37,356.68Zm-43.15-59.35H301.71v25.84h9.76q10.14,0,15-3.09t4.82-9.89Q331.26,297.34,312.22,297.33Z"/></svg>