<svg id="Layer_1" data-name="Layer 1" xmlns="http://www.w3.org/2000/svg" viewBox="0 0 500 500"><defs><style>.cls-1{fill:#ff0056;}.cls-2{fill:#fff;}</style></defs><path class="cls-1" d="M250,450c110.46,0,200-89.54,200-200S360.46,50,250,50,50,139.54,50,250s89.54,200,200,200"/><path class="cls-2" d="M208.14,218.7a33.86,33.86,0,0,1-13.94,13.1,43,43,0,0,1-20,4.57q-13.11,0-22.48-5.05a34.31,34.31,0,0,1-14.36-14.49q-5-9.44-5-22.54,0-13.57,5.53-23.8a40.46,40.46,0,0,1,15.38-16,44.45,44.45,0,0,1,22.84-5.77q11.07,0,18.94,4.21a34.83,34.83,0,0,1,13.16,12.74l-12,8.66a20.54,20.54,0,0,0-8.54-8.78A24.79,24.79,0,0,0,176,162.8a26.36,26.36,0,0,0-14.42,4,27.28,27.28,0,0,0-9.8,11,35.78,35.78,0,0,0-3.54,16.29q0,13.35,6.91,20.8t19.29,7.45a26.08,26.08,0,0,0,12.62-3.12,23.76,23.76,0,0,0,9.38-9.5Z"/><path class="cls-2" d="M230.14,235.28H214.87V149.94h30q16.59,0,25.37,6.73t8.77,19.47q0,12.87-9.49,20.14t-27.65,7.27H230.14Zm14.18-72.6H230.14v28h12.62q10.81,0,15.75-3.49t4.93-10.82q0-7.33-4.63-10.52T244.32,162.68Z"/><path class="cls-2" d="M344.82,149.94h15v85.34H346.14l-42.43-59.5v59.5h-15V149.94h13.7l42.44,59.5Z"/><path class="cls-2" d="M123.64,355.49V270.14h15.63v35.34h40.39V270.14H195.4v85.35H179.66V319.18H139.27v36.31Z"/><path class="cls-2" d="M253.34,311h33.9v44.48H274.86l-1.32-9.14a23.06,23.06,0,0,1-10.7,7.88,41.93,41.93,0,0,1-14.3,2.34q-12.27,0-21.28-5.05A34.51,34.51,0,0,1,213.31,337q-4.92-9.45-4.92-22.54,0-13.59,5.59-23.81a40,40,0,0,1,15.86-16q10.29-5.77,24.11-5.77,11.3,0,19.35,4.2a34.64,34.64,0,0,1,13.34,12.63l-12,8.77a20.41,20.41,0,0,0-8.77-8.53,26.71,26.71,0,0,0-12.14-2.77,29.54,29.54,0,0,0-15.45,3.91A26.15,26.15,0,0,0,228.16,298a35.41,35.41,0,0,0-3.55,16.23q0,13.46,6.8,20.85t18.69,7.4a28.11,28.11,0,0,0,10.7-2.05,19.63,19.63,0,0,0,8.23-6.07,15.5,15.5,0,0,0,3.19-9.92v-.72H253.34Z"/><path class="cls-2" d="M357.09,270.14h15v85.35h-13.7L316,296v59.51H301V270.14h13.7l42.44,59.5Z"/></svg>