<svg id="Layer_1" data-name="Layer 1" xmlns="http://www.w3.org/2000/svg" viewBox="0 0 500 500"><defs><style>.cls-1{fill:#ff0056;}.cls-2{fill:#fff;}</style></defs><path class="cls-1" d="M250,450c110.46,0,200-89.54,200-200S360.46,50,250,50,50,139.54,50,250s89.54,200,200,200"/><path class="cls-2" d="M142.63,235.75V150.4H171q16.23,0,24.95,5.95t8.71,17.37a20.75,20.75,0,0,1-3,11.06,20.4,20.4,0,0,1-8.53,7.7,20,20,0,0,1,9.38,7.27,19.77,19.77,0,0,1,3.48,11.6q0,11.18-8.29,17.79T175,235.75Zm28.61-72.6H157.9v23.2H171q9.13,0,13.58-2.83t4.45-9.07q0-5.77-4.26-8.54T171.24,163.15ZM157.9,223h16.71q7.32,0,11.6-2.88t4.27-9.14q0-11.66-16.23-11.66H157.9Z"/><path class="cls-2" d="M285,220.85,288.57,233a18.43,18.43,0,0,1-5.89,2.82,26,26,0,0,1-7.34,1q-13.45,0-21.15-11.91l-12.38-19a12.89,12.89,0,0,0-4-4.21,8.64,8.64,0,0,0-4.45-1.2h-.6v35.22H217.52V150.4h26.57q16.23,0,24.58,6.74T277,175.65A22.06,22.06,0,0,1,265.37,196a33.29,33.29,0,0,1-12.26,3.85,18.88,18.88,0,0,1,6.61,6.49l6.73,10a18.1,18.1,0,0,0,5,5.29,11.18,11.18,0,0,0,5.95,1.44A13.71,13.71,0,0,0,285,220.85ZM243,163.15H232.79v25.12h9.5q9.86,0,14.54-3t4.69-9.62Q261.52,163.14,243,163.15Z"/><path class="cls-2" d="M362.38,219.17a33.89,33.89,0,0,1-13.95,13.1,43.09,43.09,0,0,1-19.95,4.57q-13.11,0-22.48-5.05a34.39,34.39,0,0,1-14.37-14.49q-5-9.44-5-22.54,0-13.57,5.53-23.8a40.55,40.55,0,0,1,15.39-16,44.45,44.45,0,0,1,22.84-5.77q11.06,0,18.93,4.21a34.77,34.77,0,0,1,13.17,12.74l-12,8.66a20.6,20.6,0,0,0-8.54-8.78,24.82,24.82,0,0,0-11.66-2.76,26.34,26.34,0,0,0-14.42,4,27.28,27.28,0,0,0-9.8,11,35.65,35.65,0,0,0-3.55,16.29q0,13.35,6.91,20.8t19.3,7.45a26.11,26.11,0,0,0,12.62-3.12,23.83,23.83,0,0,0,9.38-9.5Z"/><path class="cls-2" d="M141.07,356V270.62H156.7v71.64h38L193.6,356Z"/><path class="cls-2" d="M257.91,270.62h15V356h-13.7l-42.44-59.5V356h-15V270.62h13.71l42.43,59.5Z"/><path class="cls-2" d="M279.43,356l36.42-85.34h13.23l35,85.34H348.19l-7.69-19.47H303.23L295.3,356Zm29.21-32.57h26.81l-13.22-33.54Z"/></svg>