<svg id="Layer_1" data-name="Layer 1" xmlns="http://www.w3.org/2000/svg" viewBox="0 0 500 500"><defs><style>.cls-1{fill:#ff0056;}.cls-2{fill:#fff;}</style></defs><path class="cls-1" d="M250,450c110.46,0,200-89.54,200-200S360.46,50,250,50,50,139.54,50,250s89.54,200,200,200"/><path class="cls-2" d="M115.58,242.87V157.52h15.63v35.34H171.6V157.52h15.75v85.35H171.6V206.56H131.21v36.31Z"/><path class="cls-2" d="M193.72,242.87l36.42-85.35h13.23l35,85.35H262.48l-7.69-19.48H217.52l-7.93,19.48Zm29.21-32.58h26.81l-13.23-33.54Z"/><path class="cls-2" d="M284.84,242.87l3.24-85.35h13.59l31.25,65.75,31.14-65.75h13.58l2.65,85.35h-15l-1.68-53.14-25.37,53.14H326.43l-25-52.77-2.17,52.77Z"/><path class="cls-2" d="M137.58,363.09V277.74H166q16.23,0,24.94,5.95t8.72,17.37a20.85,20.85,0,0,1-3,11.06,20.47,20.47,0,0,1-8.54,7.69,19.65,19.65,0,0,1,12.86,18.87q0,11.19-8.29,17.8t-22.72,6.61Zm28.61-72.61H152.85v23.2H166q9.13,0,13.59-2.82t4.44-9.08q0-5.77-4.27-8.54T166.19,290.48Zm-13.34,59.86h16.71q7.33,0,11.6-2.88t4.27-9.14q0-11.65-16.23-11.66H152.85Z"/><path class="cls-2" d="M279.91,348.18l3.61,12.14a18.44,18.44,0,0,1-5.89,2.83,26,26,0,0,1-7.34,1q-13.46,0-21.15-11.9l-12.38-19a12.74,12.74,0,0,0-4-4.2,8.67,8.67,0,0,0-4.45-1.21h-.6v35.23H212.47V277.74H239q16.23,0,24.58,6.73T272,303a22.09,22.09,0,0,1-11.66,20.32,33.46,33.46,0,0,1-12.27,3.84,18.91,18.91,0,0,1,6.62,6.49l6.73,10a18.1,18.1,0,0,0,5,5.29,11.18,11.18,0,0,0,5.95,1.44A13.71,13.71,0,0,0,279.91,348.18Zm-42-57.7H227.74V315.6h9.5q9.85,0,14.54-3t4.69-9.62Q256.47,290.48,238,290.48Z"/><path class="cls-2" d="M326.55,318.61h33.9v44.48H348.07L346.75,354a23,23,0,0,1-10.7,7.87,41.71,41.71,0,0,1-14.31,2.35q-12.25,0-21.27-5.05a34.53,34.53,0,0,1-14-14.49q-4.92-9.44-4.93-22.54,0-13.57,5.59-23.8a40.15,40.15,0,0,1,15.87-16q10.27-5.76,24.1-5.77,11.31,0,19.36,4.21a34.75,34.75,0,0,1,13.34,12.62l-12,8.78a20.46,20.46,0,0,0-8.78-8.54,26.77,26.77,0,0,0-12.14-2.76,29.5,29.5,0,0,0-15.44,3.91,26.15,26.15,0,0,0-10.1,10.88,35.21,35.21,0,0,0-3.55,16.22q0,13.47,6.79,20.86t18.7,7.39a28.33,28.33,0,0,0,10.7-2,19.63,19.63,0,0,0,8.23-6.07,15.5,15.5,0,0,0,3.19-9.92v-.72H326.55Z"/></svg>