<svg id="Layer_1" data-name="Layer 1" xmlns="http://www.w3.org/2000/svg" viewBox="0 0 500 500"><defs><style>.cls-1{fill:#ff0056;}.cls-2{fill:#fff;}</style></defs><path class="cls-1" d="M250,450c110.46,0,200-89.54,200-200S360.46,50,250,50,50,139.54,50,250s89.54,200,200,200"/><path class="cls-2" d="M86.22,283.6V198.25h25.36q24.88,0,37.63,10.7T162,240.57q0,13-5.65,22.66a38.61,38.61,0,0,1-16,15Q130,283.61,116,283.6Zm15.62-13.82h13.59q15,0,22.84-7.27t7.81-21.34q0-14.67-8-21.88t-24.46-7.21H101.84Z"/><path class="cls-2" d="M175.05,283.6V198.25h28.37q16.23,0,25,5.95t8.71,17.37a20.83,20.83,0,0,1-3,11.06,20.49,20.49,0,0,1-8.54,7.7A19.65,19.65,0,0,1,238.4,259.2q0,11.18-8.29,17.79t-22.72,6.61ZM203.66,211H190.32v23.2h13.1q9.14,0,13.59-2.82t4.44-9.08q0-5.76-4.26-8.53T203.66,211Zm-13.34,59.87H207q7.33,0,11.6-2.89t4.27-9.13q0-11.65-16.23-11.66H190.32Z"/><path class="cls-2" d="M250.06,283.6V198.25h15.63V269.9h38l-1.08,13.7Z"/><path class="cls-2" d="M310.77,283.6V198.25H326.4V283.6Z"/><path class="cls-2" d="M399,198.25h15V283.6h-13.7l-42.44-59.5v59.5h-15V198.25h13.71L399,257.76Z"/></svg>