<svg id="Layer_1" data-name="Layer 1" xmlns="http://www.w3.org/2000/svg" viewBox="0 0 500 500"><defs><style>.cls-1{fill:#ff0056;}.cls-2{fill:#fff;}</style></defs><path class="cls-1" d="M250,450c110.46,0,200-89.54,200-200S360.46,50,250,50,50,139.54,50,250s89.54,200,200,200"/><path class="cls-2" d="M177.15,238.93q-15,0-23.44-6.73t-9.61-19.72l14.66-2.16q2.16,15.39,19.12,15.39,7.32,0,11.42-3a9.57,9.57,0,0,0,4.08-8.23,8,8,0,0,0-4.08-7.28q-4.1-2.46-13.11-4.62a77.19,77.19,0,0,1-14.42-4.87,21.76,21.76,0,0,1-9.2-7.64q-3.18-4.8-3.19-12.74a23.83,23.83,0,0,1,3.91-13.46,26.73,26.73,0,0,1,10.76-9.26,35.63,35.63,0,0,1,15.87-3.36q11.9,0,19.47,6.25t8.9,17.19L194.58,177q-2.52-12.5-15.38-12.5A15.33,15.33,0,0,0,169,167.77a10.52,10.52,0,0,0-3.91,8.53,9.43,9.43,0,0,0,3.85,8.11q3.84,2.84,13.1,5a86.34,86.34,0,0,1,14.31,4.51,21.88,21.88,0,0,1,9.31,7.15q3.31,4.58,3.31,12.51a22.22,22.22,0,0,1-4,13.16,26.81,26.81,0,0,1-11.18,9A39.86,39.86,0,0,1,177.15,238.93Z"/><path class="cls-2" d="M281.86,152.5l-1.93,13.7H253.49v71.65H237.86V166.2H210.45V152.5Z"/><path class="cls-2" d="M287.87,237.85V152.5h15.62v38.11L339,152.5h19L317.8,195.05a22.87,22.87,0,0,1,8.66,8.42l9.61,14.9a16.7,16.7,0,0,0,4.93,5.29,11.53,11.53,0,0,0,6,1.45,13.33,13.33,0,0,0,7.57-2.17l3.61,12.14a16.69,16.69,0,0,1-5.83,2.83,26.59,26.59,0,0,1-7.39,1q-13.59,0-21.16-11.9l-12.38-19a17,17,0,0,0-3.43-3.91,10.83,10.83,0,0,0-4.51-2v35.7Z"/><path class="cls-2" d="M128.77,354.09V257.56H144.4v40h40.39v-40h15.75v96.53H184.79V313H144.4v41.06Z"/><path class="cls-2" d="M216.88,354.09V257.56h15.63v81h38l-1.09,15.5Z"/><path class="cls-2" d="M277.11,354.09l3.24-96.53h13.59l31.25,74.37,31.14-74.37h13.58l2.64,96.53h-15L355.85,294l-25.37,60.09H318.7l-25-59.69-2.17,59.69Z"/></svg>