<svg id="Layer_1" data-name="Layer 1" xmlns="http://www.w3.org/2000/svg" viewBox="0 0 500 500"><defs><style>.cls-1{fill:#ff0056;}.cls-2{fill:#fff;}</style></defs><path class="cls-1" d="M250,450c110.46,0,200-89.54,200-200S360.46,50,250,50,50,139.54,50,250s89.54,200,200,200"/><path class="cls-2" d="M148,237.85V152.5h28.37q16.23,0,24.95,5.95T210,175.82a20.85,20.85,0,0,1-3,11.06,20.4,20.4,0,0,1-8.54,7.69,20,20,0,0,1,9.38,7.28,19.74,19.74,0,0,1,3.48,11.59q0,11.19-8.29,17.8t-22.72,6.61Zm28.61-72.61H163.26v23.2h13.1q9.13,0,13.59-2.82t4.44-9.08q0-5.78-4.26-8.53T176.6,165.24Zm-13.34,59.87H180q7.34,0,11.6-2.89t4.27-9.14q0-11.65-16.23-11.66H163.26Z"/><path class="cls-2" d="M277.94,166H238.27v22H276v13.46H238.27v23h41.11l-1.08,13.47H223V152.5h54.94Z"/><path class="cls-2" d="M357.28,222.94l3.6,12.14a18,18,0,0,1-5.89,2.83,26,26,0,0,1-7.33,1q-13.47,0-21.16-11.9l-12.38-19a12.58,12.58,0,0,0-4-4.21,8.66,8.66,0,0,0-4.45-1.2h-.6v35.22H289.84V152.5h26.57q16.21,0,24.58,6.73t8.35,18.51a22,22,0,0,1-11.66,20.32,33.16,33.16,0,0,1-12.26,3.84,18.76,18.76,0,0,1,6.61,6.5l6.74,10a18.22,18.22,0,0,0,5,5.29,11.24,11.24,0,0,0,6,1.45A13.75,13.75,0,0,0,357.28,222.94Zm-42-57.7H305.11v25.12h9.49q9.86,0,14.55-3t4.69-9.62Q333.84,165.25,315.32,165.24Z"/><path class="cls-2" d="M165.9,358.06V272.71h15.63v71.64h38l-1.08,13.71Z"/><path class="cls-2" d="M226.61,358.06V272.71h15.62v85.35Z"/><path class="cls-2" d="M314.84,272.71h15v85.35H316.16l-42.43-59.51v59.51h-15V272.71h13.7l42.44,59.5Z"/></svg>