<svg id="Layer_1" data-name="Layer 1" xmlns="http://www.w3.org/2000/svg" viewBox="0 0 500 500"><defs><style>.cls-1{fill:#ff0056;}.cls-2{fill:#fff;}</style></defs><path class="cls-1" d="M250,450c110.46,0,200-89.54,200-200S360.46,50,250,50,50,139.54,50,250s89.54,200,200,200"/><path class="cls-2" d="M118.31,237.85l36.42-85.35H168l35,85.35H187.07l-7.69-19.48H142.11l-7.93,19.48Zm29.21-32.58h26.81l-13.22-33.54Z"/><path class="cls-2" d="M209.43,237.85l3.24-85.35h13.59l31.25,65.75,31.14-65.75h13.58l2.65,85.35h-15l-1.68-53.14L262.8,237.85H251l-25-52.77-2.17,52.77Z"/><path class="cls-2" d="M347.67,238.93q-15,0-23.44-6.73t-9.62-19.72l14.67-2.16q2.16,15.39,19.11,15.39,7.33,0,11.42-3a9.56,9.56,0,0,0,4.09-8.23,8,8,0,0,0-4.09-7.28q-4.08-2.46-13.1-4.62a77.56,77.56,0,0,1-14.43-4.87,21.79,21.79,0,0,1-9.19-7.64q-3.19-4.8-3.19-12.74a23.75,23.75,0,0,1,3.91-13.46,26.73,26.73,0,0,1,10.76-9.26,35.6,35.6,0,0,1,15.87-3.36q11.9,0,19.47,6.25t8.9,17.19L365.1,177q-2.52-12.5-15.39-12.5a15.32,15.32,0,0,0-10.15,3.25,10.52,10.52,0,0,0-3.91,8.53,9.43,9.43,0,0,0,3.85,8.11q3.84,2.84,13.1,5a85.9,85.9,0,0,1,14.3,4.51,21.85,21.85,0,0,1,9.32,7.15q3.3,4.58,3.31,12.51a22.29,22.29,0,0,1-4,13.16,26.88,26.88,0,0,1-11.18,9A39.86,39.86,0,0,1,347.67,238.93Z"/><path class="cls-2" d="M187.07,272.71l-1.92,13.7H158.7v71.65H143.07V286.41h-27.4v-13.7Z"/><path class="cls-2" d="M193.08,358.06V272.71h25.37q24.87,0,37.62,10.7T268.81,315q0,13-5.65,22.66a38.61,38.61,0,0,1-16,15q-10.35,5.35-24.29,5.35Zm15.63-13.83h13.58q15,0,22.84-7.27T253,315.62q0-14.65-8-21.88t-24.46-7.21H208.71Z"/><path class="cls-2" d="M281.43,358.06l3.25-85.35h13.58l31.26,65.75,31.13-65.75h13.59l2.64,85.35h-15l-1.69-53.14-25.36,53.14H323l-25-52.77-2.16,52.77Z"/></svg>