<svg id="Layer_1" data-name="Layer 1" xmlns="http://www.w3.org/2000/svg" viewBox="0 0 500 500"><defs><style>.cls-1{fill:#ff0056;}.cls-2{fill:#fff;}</style></defs><path class="cls-1" d="M250,450c110.46,0,200-89.54,200-200S360.46,50,250,50,50,139.54,50,250s89.54,200,200,200"/><path class="cls-2" d="M137.17,242.86V157.51H152.8v71.65h38l-1.08,13.7Z"/><path class="cls-2" d="M232.86,243.94q-13,.12-22.24-4.87a33.61,33.61,0,0,1-14.18-14.48q-4.94-9.5-4.93-22.84a50.83,50.83,0,0,1,5.29-23.62,39.09,39.09,0,0,1,15-16q9.68-5.78,22.91-5.77a39.64,39.64,0,0,1,20.67,5.29,36.37,36.37,0,0,1,13.83,14.72q4.92,9.45,4.92,22.18,0,13.83-5.34,24a39.64,39.64,0,0,1-14.67,15.8A40.06,40.06,0,0,1,232.86,243.94Zm-.48-14.06a24.33,24.33,0,0,0,13.41-3.73,25.1,25.1,0,0,0,9.13-10.7q3.3-7,3.31-16.95,0-12.85-6.5-20.55t-17.43-7.7a24.84,24.84,0,0,0-13.88,4,27.43,27.43,0,0,0-9.56,10.94,36.2,36.2,0,0,0-3.48,16.35q0,13.59,6.67,21T232.38,229.88Z"/><path class="cls-2" d="M343.34,157.51h15v85.35h-13.7l-42.44-59.5v59.5h-15V157.51h13.7L343.34,217Z"/><path class="cls-2" d="M121.67,363.08V277.73H147q24.89,0,37.63,10.7T197.4,320q0,13-5.65,22.66a38.51,38.51,0,0,1-16,15q-10.33,5.36-24.28,5.35Zm15.63-13.82h13.58q15,0,22.84-7.28t7.81-21.33q0-14.67-8-21.88t-24.46-7.21H137.3Z"/><path class="cls-2" d="M248.49,364.16q-13,.12-22.24-4.87a33.61,33.61,0,0,1-14.18-14.48q-4.94-9.49-4.93-22.84a50.83,50.83,0,0,1,5.29-23.62,39,39,0,0,1,15-16.05q9.68-5.78,22.9-5.77A39.65,39.65,0,0,1,271,281.82a36.28,36.28,0,0,1,13.82,14.72q4.93,9.45,4.93,22.18,0,13.83-5.35,24a39.51,39.51,0,0,1-14.66,15.81A40.09,40.09,0,0,1,248.49,364.16ZM248,350.1a24.27,24.27,0,0,0,13.4-3.73,25.05,25.05,0,0,0,9.14-10.7q3.3-7,3.31-16.95,0-12.86-6.5-20.55t-17.43-7.7a24.82,24.82,0,0,0-13.88,4,27.28,27.28,0,0,0-9.56,10.94A36.2,36.2,0,0,0,223,321.73q0,13.57,6.67,21T248,350.1Z"/><path class="cls-2" d="M358.84,277.73h15v85.35h-13.7l-42.44-59.5v59.5h-15V277.73h13.7l42.43,59.5Z"/></svg>