<svg id="Layer_1" data-name="Layer 1" xmlns="http://www.w3.org/2000/svg" viewBox="0 0 500 500"><defs><style>.cls-1{fill:#ff0056;}.cls-2{fill:#fff;}</style></defs><path class="cls-1" d="M250,450c110.46,0,200-89.54,200-200S360.46,50,250,50,50,139.54,50,250s89.54,200,200,200"/><path class="cls-2" d="M180.72,226.32l3.61,12.14a18.34,18.34,0,0,1-5.89,2.83,26,26,0,0,1-7.33,1q-13.47,0-21.16-11.9l-12.38-19a12.64,12.64,0,0,0-4-4.2,8.61,8.61,0,0,0-4.45-1.2h-.6v35.22H113.29V155.88h26.56q16.23,0,24.59,6.73t8.35,18.51a22.09,22.09,0,0,1-11.66,20.32,33.41,33.41,0,0,1-12.26,3.84,18.89,18.89,0,0,1,6.61,6.49l6.73,10a18.23,18.23,0,0,0,5,5.29,11.2,11.2,0,0,0,6,1.44A13.71,13.71,0,0,0,180.72,226.32Zm-41.95-57.7H128.55v25.12h9.5q9.85,0,14.54-3t4.69-9.62Q157.28,168.63,138.77,168.62Z"/><path class="cls-2" d="M249.49,155.88l-1.93,13.7H221.12v71.65H205.49V169.58H178.08v-13.7Z"/><path class="cls-2" d="M317.4,155.88l-1.92,13.7H289v71.65H273.41V169.58H246v-13.7Z"/><path class="cls-2" d="M390.85,226.32l3.61,12.14a18.44,18.44,0,0,1-5.89,2.83,26,26,0,0,1-7.34,1q-13.46,0-21.15-11.9l-12.38-19a12.74,12.74,0,0,0-4-4.2,8.64,8.64,0,0,0-4.45-1.2h-.6v35.22H323.41V155.88H350q16.23,0,24.58,6.73t8.36,18.51a22.09,22.09,0,0,1-11.66,20.32A33.46,33.46,0,0,1,359,205.28a18.91,18.91,0,0,1,6.62,6.49l6.73,10a18.1,18.1,0,0,0,5,5.29,11.18,11.18,0,0,0,5.95,1.44A13.71,13.71,0,0,0,390.85,226.32Zm-42-57.7H338.68v25.12h9.5q9.85,0,14.54-3t4.69-9.62Q367.41,168.63,348.9,168.62Z"/><path class="cls-2" d="M117.61,361.09V275.74H143q24.89,0,37.62,10.7t12.75,31.61q0,13-5.65,22.66a38.69,38.69,0,0,1-16,15q-10.34,5.34-24.28,5.35Zm15.63-13.83h13.59q15,0,22.83-7.27t7.82-21.34q0-14.65-8-21.88T145,289.56H133.24Z"/><path class="cls-2" d="M196.35,361.09l36.42-85.35H246l35,85.35H265.11l-7.69-19.48H220.15l-7.93,19.48Zm29.21-32.58h26.81L239.15,295Z"/><path class="cls-2" d="M287.35,361.09l3.24-85.35h13.59l31.25,65.75,31.14-65.75h13.58l2.65,85.35h-15L366.09,308l-25.37,53.14H328.94l-25-52.78-2.17,52.78Z"/></svg>