<svg id="Layer_1" data-name="Layer 1" xmlns="http://www.w3.org/2000/svg" viewBox="0 0 500 500"><defs><style>.cls-1{fill:#ff0056;}.cls-2{fill:#fff;}</style></defs><path class="cls-1" d="M250,450c110.46,0,200-89.54,200-200S360.46,50,250,50,50,139.54,50,250s89.54,200,200,200"/><path class="cls-2" d="M184.05,155.88h15.62l-31.13,85.35H146.78l-25.84-85.35h16.58l21,72.24Z"/><path class="cls-2" d="M204.24,241.23V155.88h15.63v85.35Z"/><path class="cls-2" d="M291.27,169.34H251.6v22h37.75V204.8H251.6v23h41.12l-1.09,13.47H236.34V155.88h54.93Z"/><path class="cls-2" d="M359.31,155.88h15v85.35H360.63L318.2,181.72v59.51h-15V155.88h13.71l42.43,59.5Z"/><path class="cls-2" d="M230.93,275.74h15v85.35h-13.7l-42.43-59.51v59.51h-15V275.74h13.7l42.44,59.5Z"/><path class="cls-2" d="M252.33,361.09l36.42-85.35H302l35,85.35H321.09l-7.7-19.48H276.13l-7.94,19.48Zm29.21-32.58h26.8L295.12,295Z"/></svg>