<svg id="Layer_1" data-name="Layer 1" xmlns="http://www.w3.org/2000/svg" viewBox="0 0 500 500"><defs><style>.cls-1{fill:#ff0056;}.cls-2{fill:#fff;}</style></defs><path class="cls-1" d="M250,450c110.46,0,200-89.54,200-200S360.46,50,250,50,50,139.54,50,250s89.54,200,200,200"/><path class="cls-2" d="M112.57,243.23l3.24-85.35H129.4l31.25,65.76,31.14-65.76h13.58L208,243.23H193l-1.68-53.13-25.37,53.13H154.16l-25-52.77L127,243.23Z"/><path class="cls-2" d="M262.23,244.31q-13,.12-22.24-4.87A33.61,33.61,0,0,1,225.81,225q-4.94-9.5-4.93-22.84a50.83,50.83,0,0,1,5.29-23.62,39.09,39.09,0,0,1,15-16.05q9.68-5.77,22.9-5.77A39.65,39.65,0,0,1,284.71,162a36.28,36.28,0,0,1,13.82,14.72q4.94,9.45,4.93,22.18,0,13.83-5.35,24a39.55,39.55,0,0,1-14.66,15.8A40.09,40.09,0,0,1,262.23,244.31Zm-.48-14.06a24.29,24.29,0,0,0,13.4-3.73,25.05,25.05,0,0,0,9.14-10.7q3.3-7,3.3-16.95,0-12.85-6.49-20.55t-17.43-7.7a24.82,24.82,0,0,0-13.88,4,27.43,27.43,0,0,0-9.56,10.94,36.2,36.2,0,0,0-3.49,16.35q0,13.59,6.68,21T261.75,230.25Z"/><path class="cls-2" d="M372.7,157.88h15v85.35H374l-42.44-59.5v59.5h-15V157.88h13.7l42.43,59.51Z"/><path class="cls-2" d="M181.93,278.09h15v85.35H183.25l-42.43-59.51v59.51h-15V278.09H139.5l42.43,59.5Z"/><path class="cls-2" d="M268.36,291.55H228.69v22h37.75V327H228.69v23H269.8l-1.08,13.47h-55.3V278.09h54.94Z"/><path class="cls-2" d="M279.78,363.44,283,278.09h13.58l31.25,65.75L359,278.09h13.58l2.65,85.35h-15l-1.68-53.14-25.37,53.14H321.37l-25-52.78-2.16,52.78Z"/></svg>